<svg width="32" height="32" viewBox="0 0 32 32" fill="none" xmlns="http://www.w3.org/2000/svg">
<rect x="0.5" y="0.5" width="31" height="31" rx="15.5" fill="#FFFBE6"/>
<rect x="0.5" y="0.5" width="31" height="31" rx="15.5" stroke="#FAAD14"/>
<path d="M22.2498 10.9688H21.1576C21.0045 10.9688 20.8591 11.0391 20.7654 11.1594L14.3232 19.3203L11.2341 15.4062C11.1874 15.3469 11.1278 15.2989 11.0599 15.2659C10.992 15.2329 10.9175 15.2157 10.842 15.2156H9.74976C9.64508 15.2156 9.58726 15.3359 9.65133 15.4172L13.931 20.8391C14.131 21.0922 14.5154 21.0922 14.717 20.8391L22.3482 11.1688C22.4123 11.0891 22.3545 10.9688 22.2498 10.9688Z" fill="#FAAD14"/>
</svg>
