<svg width="28" height="28" viewBox="0 0 28 28" fill="none" xmlns="http://www.w3.org/2000/svg">
<path d="M22.8887 5.11187V18.4452H9.55534V5.11187H22.8887ZM22.8887 2.88965H9.55534C8.33312 2.88965 7.33312 3.88965 7.33312 5.11187V18.4452C7.33312 19.6674 8.33312 20.6674 9.55534 20.6674H22.8887C24.1109 20.6674 25.1109 19.6674 25.1109 18.4452V5.11187C25.1109 3.88965 24.1109 2.88965 22.8887 2.88965ZM14.522 16.223L10.6665 12.3341L12.222 10.7674L14.522 13.0785L20.222 7.33409L21.7776 8.90076L14.522 16.223ZM5.11089 7.33409H2.88867V22.8896C2.88867 24.1119 3.88867 25.1119 5.11089 25.1119H20.6665V22.8896H5.11089V7.33409Z" fill="#FAAD14"/>
</svg>
